<svg width="95" height="95" viewBox="0 0 95 95" fill="none" xmlns="http://www.w3.org/2000/svg">
<path d="M72.8333 0H22.1667C19.5479 0 17.4167 2.13119 17.4167 4.75C17.4167 7.36881 19.5479 9.5 22.1667 9.5H72.8335C75.4523 9.5 77.5835 7.36881 77.5835 4.75C77.5835 2.13119 75.4521 0 72.8333 0ZM72.8333 6.33327H22.1667C21.2943 6.33327 20.5835 5.62393 20.5835 4.75C20.5835 3.87607 21.2943 3.16673 22.1667 3.16673H72.8335C73.7059 3.16673 74.4167 3.87607 74.4167 4.75C74.4167 5.62393 73.7057 6.33327 72.8333 6.33327Z" fill="white"/>
<path d="M72.8333 85.5H22.1667C19.5479 85.5 17.4167 87.6312 17.4167 90.25C17.4167 92.8688 19.5479 95 22.1667 95H72.8335C75.4523 95 77.5835 92.8688 77.5835 90.25C77.5835 87.6312 75.4521 85.5 72.8333 85.5ZM72.8333 91.8333H22.1667C21.2943 91.8333 20.5835 91.1239 20.5835 90.25C20.5835 89.3761 21.2943 88.6667 22.1667 88.6667H72.8335C73.7059 88.6667 74.4167 89.3761 74.4167 90.25C74.4167 91.1239 73.7057 91.8333 72.8333 91.8333Z" fill="white"/>
<path d="M58.7829 41.6225C66.823 33.5824 71.25 22.8932 71.25 11.525V7.91665C71.25 7.04105 70.5407 6.33337 69.6667 6.33337H25.3333C24.4593 6.33337 23.75 7.04105 23.75 7.91665V11.525C23.75 22.8949 28.177 33.5824 36.2156 41.6225L37.8068 43.2138C38.9357 44.3427 39.5833 45.9038 39.5833 47.4999C39.5833 49.096 38.9357 50.6572 37.8083 51.786L36.2171 53.3773C28.177 61.4174 23.75 72.1049 23.75 83.4749V87.0832C23.75 87.9588 24.4593 88.6665 25.3333 88.6665H69.6665C70.5405 88.6665 71.2498 87.9588 71.2498 87.0832V83.4749C71.2498 72.1066 66.8229 61.4174 58.7827 53.3773L57.1915 51.786C56.0467 50.6412 55.4165 49.1197 55.4165 47.4999C55.4165 45.8801 56.0467 44.3586 57.1915 43.2138L58.7829 41.6225ZM54.9527 40.975C53.2095 42.7167 52.25 45.0331 52.25 47.4999C52.25 49.9668 53.2095 52.2831 54.9527 54.0249L56.5439 55.6161C63.9857 63.0578 68.0833 72.9519 68.0833 83.4749V85.4999H26.9167V83.4749C26.9167 72.9505 31.0143 63.0578 38.4544 55.6161L40.0457 54.0249C41.7905 52.2831 42.75 49.9651 42.75 47.4999C42.75 45.0347 41.7905 42.7167 40.0473 40.975L38.4561 39.3837C31.0143 31.942 26.9167 22.0477 26.9167 11.525V9.49992H68.0835V11.525C68.0835 22.0479 63.9858 31.942 56.5441 39.3837L54.9527 40.975Z" fill="white"/>
<path d="M60.8807 26.6744C60.7207 26.2723 60.1761 25.3333 58.5832 25.3333C50.3562 25.3333 46.6908 23.571 45.2372 22.5197C43.4242 21.2071 41.0984 20.8635 39.0099 21.6029C37.0165 22.3074 35.5567 23.8749 35.0073 25.9016C34.8648 26.4289 34.8393 26.7709 34.8393 26.7709C34.8156 27.0828 34.8837 27.4201 35.0373 27.694C36.5209 30.3239 38.2324 33.0979 40.6961 35.5616L42.2857 37.1528C44.6275 39.4914 45.9163 42.6042 45.9163 45.9166C45.9163 46.7922 46.6256 47.4998 47.4996 47.4998C48.3735 47.4998 49.0828 46.7922 49.0828 45.9166C49.0828 42.6059 50.3716 39.4929 52.7118 37.1528L54.3047 35.5599C54.6958 35.1704 55.2055 34.6891 55.7661 34.1635C59.8594 30.3145 61.5805 28.4414 60.8807 26.6744ZM53.5942 31.8567C53.0085 32.4093 52.4732 32.9129 52.0648 33.3213L50.4718 34.9142C49.2417 36.1429 48.2442 37.5425 47.4983 39.0593C46.7526 37.5425 45.7551 36.1429 44.5247 34.9142L42.9349 33.3229C40.9906 31.3771 39.5673 29.2348 38.0868 26.6523C38.4779 25.3303 39.4912 24.7919 40.066 24.5876C41.1711 24.1964 42.4109 24.3818 43.3799 25.0848C45.397 26.5447 49.3743 28.2657 56.9934 28.4779C56.0151 29.5799 54.4793 31.0255 53.5942 31.8567Z" fill="white"/>
<path d="M64.8073 80.6264C64.4099 75.4933 62.3516 73.3621 59.9703 70.8921C59.6489 70.5579 59.3133 70.2113 58.9696 69.8439C56.9809 67.719 54.1721 66.5 51.2603 66.5H43.7379C40.8278 66.5 38.0173 67.7192 36.0286 69.8439C35.685 70.2113 35.351 70.5564 35.0294 70.8906C32.6465 73.3606 30.5882 75.4933 30.1924 80.6281C30.1575 81.0682 30.3095 81.502 30.6088 81.8267C30.9096 82.1498 31.3293 82.3335 31.7709 82.3335H63.2285C63.6686 82.3335 64.0898 82.1498 64.3906 81.8252C64.69 81.5005 64.8405 81.0651 64.8073 80.6264ZM33.5744 79.1667C34.1112 76.4023 35.3905 75.0786 37.3094 73.0899C37.6419 72.7448 37.9871 72.3854 38.3418 72.0068C39.7336 70.5186 41.7 69.6667 43.7379 69.6667H51.2603C53.2997 69.6667 55.2661 70.5201 56.6579 72.0054C57.0141 72.3885 57.3593 72.7448 57.6934 73.0915C59.6109 75.0802 60.8886 76.4039 61.427 79.1667H33.5744Z" fill="white"/>
<path d="M47.4527 50.6667C46.5787 50.6667 45.8694 51.3744 45.8694 52.25V53.8333C45.8694 54.7089 46.5787 55.4166 47.4527 55.4166C48.3266 55.4166 49.0359 54.7089 49.0359 53.8333V52.25C49.0359 51.3744 48.3266 50.6667 47.4527 50.6667Z" fill="white"/>
<path d="M47.4527 58.5834C46.5787 58.5834 45.8694 59.291 45.8694 60.1666V61.7499C45.8694 62.6255 46.5787 63.3332 47.4527 63.3332C48.3266 63.3332 49.0359 62.6255 49.0359 61.7499V60.1666C49.0359 59.2912 48.3266 58.5834 47.4527 58.5834Z" fill="white"/>
</svg>
