<svg width="96" height="96" viewBox="0 0 96 96" fill="none" xmlns="http://www.w3.org/2000/svg">
<g clip-path="url(#clip0)">
<path d="M95.6422 40.3206L80.2672 19.1483C79.9143 18.6624 79.3503 18.375 78.7499 18.375H17.2499C16.6496 18.375 16.0856 18.6624 15.7329 19.1483L0.357874 40.3206C-0.184001 41.0666 -0.102814 42.0962 0.549124 42.7481L46.6741 88.8731C47.0259 89.2247 47.5027 89.4223 47.9999 89.4223C48.4972 89.4223 48.974 89.2247 49.3257 88.8731L66.4244 71.7742C67.1566 71.0421 67.1566 69.8548 66.4244 69.1226C65.6921 68.3904 64.5052 68.3906 63.7726 69.1226L52.2899 80.6053L64.7261 43.2973H89.5981L75.7027 57.1927C74.9705 57.9249 74.9705 59.1122 75.7027 59.8444C76.4351 60.5766 77.6219 60.5764 78.3545 59.8444L95.4507 42.7481C96.1029 42.096 96.1841 41.0668 95.6422 40.3206ZM90.4462 39.5473H67.0539L78.7501 23.4411L90.4462 39.5473ZM17.2499 23.4411L28.9462 39.5473H5.55387L17.2499 23.4411ZM51.6789 22.125H75.0712L63.3749 38.2312L51.6789 22.125ZM59.6962 39.5473H36.3037L47.9999 23.4411L59.6962 39.5473ZM32.6249 38.2314L20.9289 22.125H44.3212L32.6249 38.2314ZM31.2736 43.2973L43.7096 80.6051L6.40156 43.2973H31.2736ZM35.2263 43.2973H60.7736L47.9999 81.618L35.2263 43.2973Z" fill="white"/>
<path d="M9.375 6.25012C10.4106 6.25012 11.25 5.41069 11.25 4.37512V1.875C11.25 0.839438 10.4106 0 9.375 0C8.33944 0 7.5 0.839438 7.5 1.875V4.37494C7.5 5.41069 8.33944 6.25012 9.375 6.25012Z" fill="white"/>
<path d="M9.375 18.7501C10.4106 18.7501 11.25 17.9106 11.25 16.8751V14.3751C11.25 13.3396 10.4106 12.5001 9.375 12.5001C8.33944 12.5001 7.5 13.3396 7.5 14.3751V16.8751C7.5 17.9106 8.33944 18.7501 9.375 18.7501Z" fill="white"/>
<path d="M14.375 11.25H16.8749C17.9105 11.25 18.7499 10.4106 18.7499 9.375C18.7499 8.33944 17.9105 7.5 16.8749 7.5H14.375C13.3394 7.5 12.5 8.33944 12.5 9.375C12.5 10.4106 13.3394 11.25 14.375 11.25Z" fill="white"/>
<path d="M1.875 11.25H4.37494C5.4105 11.25 6.24994 10.4106 6.24994 9.375C6.24994 8.33944 5.4105 7.5 4.37494 7.5H1.875C0.839438 7.5 0 8.33944 0 9.375C0 10.4106 0.839438 11.25 1.875 11.25Z" fill="white"/>
<path d="M84 77.25C82.9646 77.25 82.125 78.0894 82.125 79.125V81.6249C82.125 82.6605 82.9646 83.4999 84 83.4999C85.0356 83.4999 85.875 82.6605 85.875 81.6249V79.125C85.875 78.0894 85.0356 77.25 84 77.25Z" fill="white"/>
<path d="M84 89.7501C82.9646 89.7501 82.125 90.5896 82.125 91.6251V94.1251C82.125 95.1606 82.9646 96.0001 84 96.0001C85.0356 96.0001 85.875 95.1606 85.875 94.1251V91.6251C85.875 90.5896 85.0356 89.7501 84 89.7501Z" fill="white"/>
<path d="M91.4999 84.75H89C87.9644 84.75 87.125 85.5894 87.125 86.625C87.125 87.6606 87.9644 88.5 89 88.5H91.4999C92.5355 88.5 93.3749 87.6606 93.3749 86.625C93.3749 85.5894 92.5355 84.75 91.4999 84.75Z" fill="white"/>
<path d="M78.9999 84.75H76.5C75.4646 84.75 74.625 85.5894 74.625 86.625C74.625 87.6606 75.4646 88.5 76.5 88.5H78.9999C80.0353 88.5 80.8749 87.6606 80.8749 86.625C80.8749 85.5894 80.0355 84.75 78.9999 84.75Z" fill="white"/>
<path d="M71.0625 62.6101C70.5694 62.6101 70.0856 62.8107 69.7369 63.1595C69.3881 63.5082 69.1875 63.992 69.1875 64.4851C69.1875 64.9782 69.3879 65.462 69.7369 65.8107C70.0856 66.1595 70.5694 66.3601 71.0625 66.3601C71.5556 66.3601 72.0394 66.1595 72.3879 65.8107C72.7367 65.462 72.9375 64.9782 72.9375 64.4851C72.9375 63.992 72.7369 63.5082 72.3879 63.1595C72.0394 62.8107 71.5556 62.6101 71.0625 62.6101Z" fill="white"/>
</g>
<defs>
<clipPath id="clip0">
<rect width="96" height="96" fill="white"/>
</clipPath>
</defs>
</svg>
