<?xml version="1.0"?>
<svg xmlns="http://www.w3.org/2000/svg" xmlns:xlink="http://www.w3.org/1999/xlink" xmlns:svgjs="http://svgjs.com/svgjs" version="1.1" width="512" height="512" x="0" y="0" viewBox="0 0 512 512" style="enable-background:new 0 0 512 512" xml:space="preserve" class=""><g transform="matrix(0.18999999999999997,0,0,0.18999999999999997,207.36000000000007,207.36000000000007)">
<g xmlns="http://www.w3.org/2000/svg">
	<g>
		<g>
			<path d="M232.727,197.818v23.273h-23.273V256h23.273v104.727h46.545V256h30.953l3.956-34.909h-34.909v-20.364     c0-9.425,0.931-14.429,15.476-14.429h19.433v-35.026h-31.185C245.76,151.273,232.727,168.727,232.727,197.818z" fill="#ffffff" data-original="#000000" style="" class=""/>
			<path d="M465.455,0H46.545C20.839,0,0,20.839,0,46.545v418.909C0,491.161,20.839,512,46.545,512h418.909     C491.161,512,512,491.161,512,465.455V46.545C512,20.839,491.161,0,465.455,0z M488.727,465.455     c0,12.853-10.42,23.273-23.273,23.273H46.545c-12.853,0-23.273-10.42-23.273-23.273V46.545c0-12.853,10.42-23.273,23.273-23.273     h418.909c12.853,0,23.273,10.42,23.273,23.273V465.455z" fill="#ffffff" data-original="#000000" style="" class=""/>
		</g>
	</g>
</g>
<g xmlns="http://www.w3.org/2000/svg">
</g>
<g xmlns="http://www.w3.org/2000/svg">
</g>
<g xmlns="http://www.w3.org/2000/svg">
</g>
<g xmlns="http://www.w3.org/2000/svg">
</g>
<g xmlns="http://www.w3.org/2000/svg">
</g>
<g xmlns="http://www.w3.org/2000/svg">
</g>
<g xmlns="http://www.w3.org/2000/svg">
</g>
<g xmlns="http://www.w3.org/2000/svg">
</g>
<g xmlns="http://www.w3.org/2000/svg">
</g>
<g xmlns="http://www.w3.org/2000/svg">
</g>
<g xmlns="http://www.w3.org/2000/svg">
</g>
<g xmlns="http://www.w3.org/2000/svg">
</g>
<g xmlns="http://www.w3.org/2000/svg">
</g>
<g xmlns="http://www.w3.org/2000/svg">
</g>
<g xmlns="http://www.w3.org/2000/svg">
</g>
</g></svg>
