<svg width="17" height="17" viewBox="0 0 17 17" fill="none" xmlns="http://www.w3.org/2000/svg">
<path d="M16.3331 13.5006C15.9066 12.6025 15.2878 11.7867 14.511 11.0986C13.7366 10.4086 12.8192 9.85844 11.8096 9.47853C11.8005 9.47451 11.7915 9.4725 11.7824 9.46848C13.1908 8.56396 14.1063 7.0906 14.1063 5.42828C14.1063 2.67452 11.5971 0.443359 8.5 0.443359C5.40295 0.443359 2.89365 2.67452 2.89365 5.42828C2.89365 7.0906 3.80921 8.56396 5.21758 9.47049C5.20853 9.47451 5.19949 9.47652 5.19045 9.48055C4.17769 9.86044 3.26892 10.4052 2.489 11.1006C1.71295 11.7892 1.09421 12.6049 0.66694 13.5027C0.247193 14.3816 0.0208134 15.3239 5.65291e-05 16.2785C-0.000546843 16.3 0.00368511 16.3213 0.0125031 16.3413C0.0213212 16.3613 0.0345468 16.3795 0.0514007 16.3948C0.0682546 16.4102 0.0883959 16.4224 0.110638 16.4307C0.132879 16.4391 0.156772 16.4434 0.180906 16.4434H1.53728C1.63675 16.4434 1.71587 16.373 1.71813 16.2866C1.76334 14.7348 2.46414 13.2816 3.70296 12.18C4.98473 11.0403 6.68698 10.4132 8.5 10.4132C10.313 10.4132 12.0153 11.0403 13.297 12.18C14.5359 13.2816 15.2367 14.7348 15.2819 16.2866C15.2841 16.375 15.3633 16.4434 15.4627 16.4434H16.8191C16.8432 16.4434 16.8671 16.4391 16.8894 16.4307C16.9116 16.4224 16.9317 16.4102 16.9486 16.3948C16.9655 16.3795 16.9787 16.3613 16.9875 16.3413C16.9963 16.3213 17.0005 16.3 16.9999 16.2785C16.9773 15.3177 16.7535 14.3831 16.3331 13.5006ZM8.5 8.88557C7.46237 8.88557 6.48578 8.52577 5.75108 7.87251C5.01638 7.21924 4.61173 6.3509 4.61173 5.42828C4.61173 4.50567 5.01638 3.63733 5.75108 2.98406C6.48578 2.3308 7.46237 1.971 8.5 1.971C9.53763 1.971 10.5142 2.3308 11.2489 2.98406C11.9836 3.63733 12.3883 4.50567 12.3883 5.42828C12.3883 6.3509 11.9836 7.21924 11.2489 7.87251C10.5142 8.52577 9.53763 8.88557 8.5 8.88557Z" fill="white"/>
</svg>
