<svg width="87" height="87" viewBox="0 0 87 87" fill="none" xmlns="http://www.w3.org/2000/svg">
<g clip-path="url(#clip0)">
<path d="M85.6047 3.9863L83.1707 1.55234C81.3101 -0.308306 78.2822 -0.307966 76.4216 1.55234L73.3525 4.62147C68.1739 2.62981 62.294 3.54603 58.3679 7.47191L43.6455 22.1943C42.3205 23.5192 41.7455 25.314 41.919 27.0474L8.62891 60.3375C5.00889 63.9575 4.00313 69.2161 5.6094 73.7479L2.15998 77.1973C-0.0435625 79.4008 -0.0435625 82.9865 2.15998 85.1901C3.26193 86.2917 4.70915 86.8428 6.15638 86.8428C7.6036 86.8428 9.05099 86.2917 10.1528 85.1901L13.6989 81.644C15.004 82.0719 16.3637 82.2892 17.7245 82.2892C21.0184 82.2892 24.3122 81.0355 26.8199 78.528L52.7547 52.5931C53.039 53.3056 53.4665 53.9601 54.0254 54.5188C54.0254 54.5188 54.0254 54.5188 54.0256 54.519C55.1086 55.6023 56.5487 56.1987 58.0806 56.1987C59.6123 56.1987 61.0527 55.6023 62.1358 54.519L82.5899 34.0648C83.6732 32.9816 84.2696 31.5415 84.2696 30.0095C84.2696 28.4776 83.6732 27.0374 82.5899 25.9546C82.4282 25.7927 82.2565 25.6449 82.0795 25.5052C83.1434 23.4337 83.6562 21.0777 83.5502 18.6042C83.4795 16.9524 83.1339 15.333 82.5415 13.7983L85.6052 10.7347C87.4652 8.87444 87.4652 5.84694 85.6047 3.9863ZM46.1025 24.6512L60.8248 9.92881C62.739 8.01464 65.2897 7.07157 67.9264 7.07157C70.9299 7.07157 74.0444 8.2962 76.4527 10.7045C80.9752 15.227 81.3232 22.2374 77.2284 26.3322L62.506 41.0546C62.0274 41.5332 61.3908 41.797 60.7137 41.797C60.0366 41.797 59.4 41.5332 58.9214 41.0546L46.1026 28.236C45.6238 27.7573 45.3601 27.1208 45.3601 26.4435C45.3597 25.7664 45.6236 25.1298 46.1025 24.6512ZM43.6455 30.6927L56.4643 43.5113C56.5411 43.5879 56.6198 43.662 56.6998 43.7341L27.6073 72.8267L14.3303 59.5496L43.4228 30.4572C43.4947 30.5373 43.5686 30.6159 43.6455 30.6927ZM7.69587 82.7334C6.84711 83.5823 5.46581 83.5823 4.61688 82.7334C3.76795 81.8844 3.76795 80.5031 4.61688 79.6542L7.30165 76.9693C7.69655 77.5149 8.13783 78.0369 8.62891 78.528C9.18761 79.0867 9.7871 79.5794 10.4151 80.0138L7.69587 82.7334ZM11.0856 76.0712C7.42518 72.4108 7.42518 66.4547 11.0856 62.7942L12.8562 61.0236L26.1332 74.3006L24.3628 76.0711C20.7024 79.7319 14.7463 79.7319 11.0856 76.0712ZM80.1329 28.4115C80.5597 28.8386 80.7949 29.4061 80.7949 30.0098C80.7949 30.6136 80.5597 31.1813 80.1327 31.6083L59.6785 52.0625C59.2515 52.4893 58.684 52.7245 58.0802 52.7245C57.4763 52.7245 56.9088 52.4893 56.4818 52.0625C56.4818 52.0623 56.4818 52.0623 56.4816 52.0623C56.0548 51.6353 55.8196 51.0679 55.8196 50.4638C55.8196 49.8603 56.0546 49.2931 56.4813 48.8661L60.1064 45.2409C60.3067 45.261 60.5091 45.2712 60.7132 45.2712C62.3183 45.2712 63.8273 44.6462 64.9624 43.5113L79.6848 28.7889C79.8221 28.6515 79.9539 28.5101 80.0844 28.3675C80.1006 28.3827 80.1174 28.3961 80.1329 28.4115ZM83.1478 8.27853L80.8457 10.5806C80.2807 9.75481 79.6345 8.97299 78.9093 8.2476C78.1784 7.51676 77.3958 6.87174 76.5754 6.31236L78.8785 4.00924C79.1237 3.76404 79.4496 3.62912 79.7962 3.62912C80.1429 3.62912 80.4688 3.76404 80.7138 4.00924L83.1478 6.4432C83.6538 6.94906 83.6538 7.7725 83.1478 8.27853Z" fill="white"/>
<path d="M25.0492 63.5312C25.2475 63.7068 25.4941 63.7931 25.7395 63.7931C26.0276 63.7931 26.3145 63.6743 26.5204 63.4415L27.9902 61.7805C28.3717 61.3494 28.3316 60.6906 27.9003 60.3092C27.4693 59.9277 26.8105 59.9678 26.429 60.3989L24.959 62.0599C24.5779 62.491 24.618 63.1498 25.0492 63.5312Z" fill="white"/>
<path d="M33.1812 61.6618C33.3796 61.8373 33.626 61.9235 33.8716 61.9235C34.1598 61.9235 34.4466 61.8047 34.6525 61.5719L36.1225 59.9109C36.504 59.4798 36.4639 58.8212 36.0328 58.4395C35.6017 58.0577 34.9429 58.0982 34.5614 58.5293L33.0915 60.1902C32.7098 60.6215 32.7501 61.2803 33.1812 61.6618Z" fill="white"/>
<path d="M52.8477 26.9064C52.4185 26.9064 51.9888 26.7486 51.6527 26.4298C50.9565 25.7696 50.9273 24.6701 51.5876 23.9739C52.879 22.612 54.2681 21.2784 55.6119 19.9887C56.2805 19.3468 56.9719 18.6829 57.644 18.0231C58.3286 17.3502 59.4281 17.3604 60.1007 18.045C60.7731 18.7296 60.7632 19.8293 60.0788 20.5017C59.3926 21.1758 58.6937 21.8465 58.0179 22.4953C56.6429 23.8152 55.3441 25.0623 54.1087 26.3647C53.7672 26.7248 53.3079 26.9064 52.8477 26.9064Z" fill="white"/>
<path d="M62.6676 17.2606C62.2176 17.2606 61.7683 17.0871 61.4282 16.7408C60.7558 16.0565 60.7655 14.9566 61.4501 14.284L62.2317 13.5163C62.9167 12.8439 64.0162 12.8543 64.6884 13.5389C65.3607 14.2235 65.3505 15.3234 64.6658 15.9957L63.8851 16.7627C63.5467 17.0949 63.107 17.2606 62.6676 17.2606Z" fill="white"/>
<path d="M46.7669 6.1532C47.1762 4.42185 46.1044 2.68653 44.3731 2.27727C42.6417 1.86801 40.9064 2.93978 40.4971 4.67114C40.0879 6.40249 41.1596 8.1378 42.891 8.54706C44.6224 8.95633 46.3577 7.88456 46.7669 6.1532Z" fill="white"/>
<path d="M10.8945 19.2623C10.8945 20.0159 10.2836 20.6268 9.53 20.6268C8.7764 20.6268 8.16553 20.0159 8.16553 19.2623C8.16553 18.5087 8.7764 17.8978 9.53 17.8978C10.2836 17.8978 10.8945 18.5087 10.8945 19.2623Z" fill="white"/>
<path d="M21.4046 4.82429L22.4992 7.90192C22.5461 8.0336 22.6389 8.13811 22.756 8.19078L25.4904 9.42272C25.8766 9.59672 25.8766 10.2122 25.4904 10.3863L22.756 11.6183C22.6389 11.671 22.5461 11.7755 22.4992 11.9071L21.4046 14.9848C21.25 15.4196 20.7032 15.4196 20.5485 14.9848L19.4539 11.9071C19.407 11.7753 19.3142 11.671 19.1972 11.6183L16.4628 10.3863C16.0765 10.2123 16.0765 9.59689 16.4628 9.42272L19.1972 8.19078C19.3142 8.13811 19.407 8.0336 19.4539 7.90192L20.5485 4.82429C20.7032 4.38946 21.25 4.38946 21.4046 4.82429Z" fill="white"/>
<path d="M7.18854 31.5536L8.69252 35.7025C8.75692 35.8803 8.88437 36.021 9.04528 36.092L12.8026 37.7528C13.3334 37.9875 13.3334 38.8172 12.8026 39.0519L9.04528 40.7127C8.88437 40.7837 8.75692 40.9246 8.69252 41.1022L7.18854 45.2511C6.97614 45.8374 6.22458 45.8374 6.01218 45.2511L4.5082 41.1022C4.4438 40.9246 4.31636 40.7837 4.15544 40.7127L0.398127 39.0519C-0.132709 38.8172 -0.132709 37.9875 0.398127 37.7528L4.15544 36.092C4.31636 36.021 4.4438 35.8801 4.5082 35.7025L6.01218 31.5536C6.22475 30.9673 6.97614 30.9673 7.18854 31.5536Z" fill="white"/>
</g>
<defs>
<clipPath id="clip0">
<rect width="87" height="87" fill="white"/>
</clipPath>
</defs>
</svg>
