<svg height="511pt" viewBox="0 -106 511.9757 511" width="511pt" xmlns="http://www.w3.org/2000/svg"><path d="m479.96875 299.15625h-64c-9.84375.023438-19.148438-4.507812-25.203125-12.269531l-62.398437-79.597657c-2.800782-3.578124-7.558594-4.992187-11.859376-3.515624-4.296874 1.472656-7.191406 5.503906-7.207031 10.046874v32c0 29.46875-28.667969 53.335938-64 53.335938-13.8125.125-27.371093-3.714844-39.066406-11.066406-89.601563-57.335938-150.402344-129.734375-203.199219-242-4.652344-9.90625-3.917968-21.503906 1.945313-30.746094s16.042969-14.84375 26.988281-14.855469h64c12.804688-.03125 24.394531 7.574219 29.464844 19.332031l7.199218 16.800782c10.878907 25.238281 25.484376 48.703125 43.335938 69.601562.582031.625 1.410156.96875 2.265625.933594.785156.074219 1.570313-.1875 2.152344-.722656.585937-.53125.917969-1.289063.914062-2.078125v-41.734375c-14.640625-5.230469-23.398437-20.226563-20.769531-35.546875 2.628906-15.320313 15.890625-26.535157 31.4375-26.585938h85.332031c17.671875 0 32 14.328125 32 32v74.667969c.007813 4.761719 3.171875 8.941406 7.753907 10.242188 4.582031 1.300781 9.46875-.59375 11.980468-4.644532l59.597656-96.933594c5.777344-9.566406 16.160157-15.390624 27.335938-15.332031h64c11.824219.003907 22.679688 6.53125 28.234375 16.96875s4.898437 23.089844-1.703125 32.898438l-67.199219 93.199219c-2.714843 3.738281-2.714843 8.796874 0 12.535156l66.667969 92.398437c7 9.75 7.957031 22.597657 2.476562 33.277344-5.480468 10.679687-16.476562 17.390625-28.476562 17.390625zm-160-117.335938c9.84375-.019531 19.144531 4.507813 25.199219 12.269532l62.398437 79.597656c2.015625 2.597656 5.113282 4.125 8.402344 4.132812h64c4.015625.015626 7.699219-2.230468 9.527344-5.804687 1.832031-3.578125 1.496094-7.875-.863282-11.128906l-66.664062-92.398438c-8.078125-11.183593-8.078125-26.28125 0-37.464843l67.066406-92.933594c1.054688-1.679688 1.609375-3.621094 1.597656-5.601563 0-5.890625-4.773437-10.667969-10.664062-10.667969h-64c-3.699219.003907-7.128906 1.921876-9.066406 5.066407l-59.601563 96.933593c-7.460937 12.257813-22.171875 18.050782-35.988281 14.167969-13.816406-3.878906-23.355469-16.484375-23.34375-30.832031v-74.667969c0-5.890625-4.777344-10.667969-10.667969-10.667969h-85.332031c-5.894531 0-10.667969 4.777344-10.667969 10.667969s4.773438 10.667969 10.667969 10.667969h10.664062v61.199219c-.121093 10.121093-6.476562 19.117187-15.980468 22.613281-9.5 3.492188-20.171875.753906-26.820313-6.878906-19.214843-22.503906-34.949219-47.761719-46.664062-74.933594l-7.335938-16.800781c-1.667969-3.96875-5.558593-6.546875-9.863281-6.535157h-64c-3.640625.019532-7.019531 1.894532-8.964844 4.972657-1.945312 3.078125-2.183594 6.933593-.636718 10.230469 51.601562 109.730468 108.265624 177.332031 195.464843 233.199218 8.261719 5.058594 17.78125 7.695313 27.46875 7.597656 23.464844 0 42.667969-14.398437 42.667969-32v-32c0-17.671874 14.324219-32 32-32zm0 0"/></svg>